# xmcd
#
# Track frame offsets:
#	150
#	14975
#	26340
#	38057
#	51785
#	67127
#	79925
#	89777
#	108125
#	118125
#	137292
#
# Disc length: 2021 seconds
#
# Revision: 0
# Processed by: cddbd v1.5.2PL0 Copyright (c) Steve Scherf et al.
# Submitted via: audiograbber 1.83.01
#
DISCID=9507e30b
DTITLE=BR5-49 - BR5-49
DYEAR=1996
DGENRE=Country
TTITLE0=Even If It's Wrong
TTITLE1=Cherokee Boogie
TTITLE2=Honky Tonk Song
TTITLE3=Lifetime To Prove
TTITLE4=Little Ramona (Gone Hillbilly Nuts)
TTITLE5=Crazy Arms
TTITLE6=I Ain't Never
TTITLE7=Chains Of This Town
TTITLE8=Are You Gettin' Tired Of Me
TTITLE9=Hickory Wind
TTITLE10=One Long Saturday Night
EXTD=ID3G:   2
EXTT0=
EXTT1=
EXTT2=
EXTT3=
EXTT4=
EXTT5=
EXTT6=
EXTT7=
EXTT8=
EXTT9=
EXTT10=
PLAYORDER=
